<?xml version="1.0" encoding="UTF-8" standalone="no"?>
<!DOCTYPE svg PUBLIC "-//W3C//DTD SVG 1.1//EN" "http://www.w3.org/Graphics/SVG/1.1/DTD/svg11.dtd">
<svg width="64" height="64" viewBox="0 0 64 64" version="1.1" xmlns="http://www.w3.org/2000/svg" xmlns:xlink="http://www.w3.org/1999/xlink" xml:space="preserve" xmlns:serif="http://www.serif.com/" style="fill-rule:evenodd;clip-rule:evenodd;stroke-linecap:round;stroke-linejoin:round;stroke-miterlimit:1.5;">
    <g transform="matrix(1.0193,0,0,1.02717,-0.10403,-0.41304)">
        <path d="M62.4,3.956C62.4,2.263 61.015,0.889 59.31,0.889L3.683,0.889C1.977,0.889 0.593,2.263 0.593,3.956L0.593,59.156C0.593,60.848 1.977,62.222 3.683,62.222L59.31,62.222C61.015,62.222 62.4,60.848 62.4,59.156L62.4,3.956Z" style="fill:white;stroke:rgb(56,64,71);stroke-width:0.98px;"/>
    </g>
    <g transform="matrix(58,0,0,58,12.1554,52.8223)">
        <path d="M0.08,-0L0.08,-0.7L0.335,-0.7C0.413,-0.7 0.473,-0.686 0.515,-0.657C0.557,-0.629 0.578,-0.588 0.578,-0.536C0.578,-0.498 0.565,-0.465 0.54,-0.437C0.514,-0.409 0.482,-0.389 0.442,-0.378L0.442,-0.376C0.492,-0.37 0.531,-0.351 0.561,-0.321C0.591,-0.29 0.606,-0.253 0.606,-0.209C0.606,-0.145 0.583,-0.094 0.537,-0.056C0.491,-0.019 0.429,-0 0.349,-0L0.08,-0ZM0.238,-0.584L0.238,-0.418L0.307,-0.418C0.34,-0.418 0.365,-0.426 0.384,-0.442C0.403,-0.457 0.412,-0.479 0.412,-0.507C0.412,-0.558 0.374,-0.584 0.297,-0.584L0.238,-0.584ZM0.238,-0.301L0.238,-0.116L0.323,-0.116C0.36,-0.116 0.388,-0.125 0.409,-0.142C0.43,-0.159 0.44,-0.182 0.44,-0.211C0.44,-0.239 0.43,-0.261 0.409,-0.277C0.389,-0.293 0.361,-0.301 0.324,-0.301L0.238,-0.301Z" style="fill:rgb(56,64,71);fill-rule:nonzero;"/>
    </g>
</svg>
