<?xml version="1.0" encoding="UTF-8" standalone="no"?>
<!DOCTYPE svg PUBLIC "-//W3C//DTD SVG 1.1//EN" "http://www.w3.org/Graphics/SVG/1.1/DTD/svg11.dtd">
<svg width="220" height="300" viewBox="0 0 220 300" version="1.1" xmlns="http://www.w3.org/2000/svg" xmlns:xlink="http://www.w3.org/1999/xlink" xml:space="preserve" xmlns:serif="http://www.serif.com/" style="fill-rule:evenodd;clip-rule:evenodd;stroke-linecap:round;stroke-linejoin:round;stroke-miterlimit:1.5;">
    <g>
        <g>
            <g transform="matrix(1.0193,0,0,1.02717,-0.10403,-0.41304)">
                <path d="M62.4,3.956C62.4,2.263 61.015,0.889 59.31,0.889L3.683,0.889C1.977,0.889 0.593,2.263 0.593,3.956L0.593,59.156C0.593,60.848 1.977,62.222 3.683,62.222L59.31,62.222C61.015,62.222 62.4,60.848 62.4,59.156L62.4,3.956Z" style="fill:rgb(83,141,78);stroke:rgb(83,141,78);stroke-width:0.98px;"/>
            </g>
            <g transform="matrix(58,0,0,58,13,53)">
                <path d="M0.572,-0.572L0.372,-0.572L0.372,-0L0.214,-0L0.214,-0.572L0.015,-0.572L0.015,-0.7L0.572,-0.7L0.572,-0.572Z" style="fill:white;fill-rule:nonzero;"/>
            </g>
        </g>
        <g transform="matrix(1,0,0,1,76.75,0)">
            <g transform="matrix(1.0193,0,0,1.02717,-0.10403,-0.41304)">
                <path d="M62.4,3.956C62.4,2.263 61.015,0.889 59.31,0.889L3.683,0.889C1.977,0.889 0.593,2.263 0.593,3.956L0.593,59.156C0.593,60.848 1.977,62.222 3.683,62.222L59.31,62.222C61.015,62.222 62.4,60.848 62.4,59.156L62.4,3.956Z" style="fill:rgb(83,141,78);stroke:rgb(83,141,78);stroke-width:0.98px;"/>
            </g>
            <g transform="matrix(58,0,0,58,10.1555,52.8113)">
                <path d="M0.376,0.012C0.276,0.012 0.194,-0.02 0.131,-0.086C0.068,-0.151 0.036,-0.236 0.036,-0.341C0.036,-0.451 0.068,-0.541 0.132,-0.609C0.196,-0.678 0.281,-0.712 0.387,-0.712C0.487,-0.712 0.568,-0.679 0.63,-0.614C0.691,-0.548 0.722,-0.462 0.722,-0.355C0.722,-0.245 0.69,-0.156 0.626,-0.089C0.562,-0.021 0.479,0.012 0.376,0.012ZM0.383,-0.576C0.327,-0.576 0.284,-0.555 0.251,-0.514C0.218,-0.472 0.202,-0.417 0.202,-0.349C0.202,-0.28 0.218,-0.225 0.251,-0.185C0.284,-0.144 0.326,-0.124 0.379,-0.124C0.433,-0.124 0.476,-0.144 0.508,-0.183C0.54,-0.222 0.556,-0.277 0.556,-0.346C0.556,-0.419 0.541,-0.475 0.51,-0.516C0.479,-0.556 0.437,-0.576 0.383,-0.576Z" style="fill:white;fill-rule:nonzero;"/>
            </g>
        </g>
        <g transform="matrix(1,0,0,1,153.75,0)">
            <g transform="matrix(1.0193,0,0,1.02717,-0.10403,-0.41304)">
                <path d="M62.4,3.956C62.4,2.263 61.015,0.889 59.31,0.889L3.683,0.889C1.977,0.889 0.593,2.263 0.593,3.956L0.593,59.156C0.593,60.848 1.977,62.222 3.683,62.222L59.31,62.222C61.015,62.222 62.4,60.848 62.4,59.156L62.4,3.956Z" style="fill:rgb(83,141,78);stroke:rgb(83,141,78);stroke-width:0.98px;"/>
            </g>
            <g transform="matrix(58,0,0,58,8.25001,53)">
                <path d="M0.71,-0L0.551,-0L0.262,-0.44C0.245,-0.466 0.234,-0.485 0.227,-0.498L0.225,-0.498C0.228,-0.473 0.229,-0.436 0.229,-0.385L0.229,-0L0.08,-0L0.08,-0.7L0.25,-0.7L0.528,-0.274C0.541,-0.255 0.552,-0.236 0.563,-0.217L0.565,-0.217C0.562,-0.233 0.561,-0.265 0.561,-0.313L0.561,-0.7L0.71,-0.7L0.71,-0Z" style="fill:white;fill-rule:nonzero;"/>
            </g>
        </g>
    </g>
    <g transform="matrix(1,0,0,1,-77.2504,78)">
        <g transform="matrix(1,0,0,1,76.75,0)">
            <g transform="matrix(1.0193,0,0,1.02717,-0.10403,-0.41304)">
                <path d="M62.4,3.956C62.4,2.263 61.015,0.889 59.31,0.889L3.683,0.889C1.977,0.889 0.593,2.263 0.593,3.956L0.593,59.156C0.593,60.848 1.977,62.222 3.683,62.222L59.31,62.222C61.015,62.222 62.4,60.848 62.4,59.156L62.4,3.956Z" style="fill:rgb(83,141,78);stroke:rgb(83,141,78);stroke-width:0.98px;"/>
            </g>
            <g transform="matrix(58,0,0,58,13.5004,53)">
                <path d="M0.572,-0.572L0.372,-0.572L0.372,-0L0.214,-0L0.214,-0.572L0.015,-0.572L0.015,-0.7L0.572,-0.7L0.572,-0.572Z" style="fill:white;fill-rule:nonzero;"/>
            </g>
        </g>
        <g transform="matrix(1,0,0,1,153.75,0)">
            <g transform="matrix(1.0193,0,0,1.02717,-0.10403,-0.41304)">
                <path d="M62.4,3.956C62.4,2.263 61.015,0.889 59.31,0.889L3.683,0.889C1.977,0.889 0.593,2.263 0.593,3.956L0.593,59.156C0.593,60.848 1.977,62.222 3.683,62.222L59.31,62.222C61.015,62.222 62.4,60.848 62.4,59.156L62.4,3.956Z" style="fill:rgb(83,141,78);stroke:rgb(83,141,78);stroke-width:0.98px;"/>
            </g>
            <g transform="matrix(58,0,0,58,21.5004,53)">
                <rect x="0.08" y="-0.7" width="0.158" height="0.7" style="fill:white;"/>
            </g>
        </g>
        <g transform="matrix(1,0,0,1,230.417,0)">
            <g transform="matrix(1.0193,0,0,1.02717,-0.10403,-0.41304)">
                <path d="M62.4,3.956C62.4,2.263 61.015,0.889 59.31,0.889L3.683,0.889C1.977,0.889 0.593,2.263 0.593,3.956L0.593,59.156C0.593,60.848 1.977,62.222 3.683,62.222L59.31,62.222C61.015,62.222 62.4,60.848 62.4,59.156L62.4,3.956Z" style="fill:rgb(83,141,78);stroke:rgb(83,141,78);stroke-width:0.98px;"/>
            </g>
            <g transform="matrix(58,0,0,58,8.83374,53)">
                <path d="M0.71,-0L0.551,-0L0.262,-0.44C0.245,-0.466 0.234,-0.485 0.227,-0.498L0.225,-0.498C0.228,-0.473 0.229,-0.436 0.229,-0.385L0.229,-0L0.08,-0L0.08,-0.7L0.25,-0.7L0.528,-0.274C0.541,-0.255 0.552,-0.236 0.563,-0.217L0.565,-0.217C0.562,-0.233 0.561,-0.265 0.561,-0.313L0.561,-0.7L0.71,-0.7L0.71,-0Z" style="fill:white;fill-rule:nonzero;"/>
            </g>
        </g>
    </g>
    <g transform="matrix(1,0,0,1,-77.2504,157.667)">
        <g transform="matrix(1,0,0,1,76.75,-1)">
            <g transform="matrix(1.0193,0,0,1.02717,-0.10403,-0.41304)">
                <path d="M62.4,3.956C62.4,2.263 61.015,0.889 59.31,0.889L3.683,0.889C1.977,0.889 0.593,2.263 0.593,3.956L0.593,59.156C0.593,60.848 1.977,62.222 3.683,62.222L59.31,62.222C61.015,62.222 62.4,60.848 62.4,59.156L62.4,3.956Z" style="fill:rgb(83,141,78);stroke:rgb(83,141,78);stroke-width:0.98px;"/>
            </g>
            <g transform="matrix(58,0,0,58,20.5004,53.3333)">
                <rect x="0.08" y="-0.7" width="0.158" height="0.7" style="fill:white;"/>
            </g>
        </g>
        <g transform="matrix(1,0,0,1,153.75,-1)">
            <g transform="matrix(1.0193,0,0,1.02717,-0.10403,-0.41304)">
                <path d="M62.4,3.956C62.4,2.263 61.015,0.889 59.31,0.889L3.683,0.889C1.977,0.889 0.593,2.263 0.593,3.956L0.593,59.156C0.593,60.848 1.977,62.222 3.683,62.222L59.31,62.222C61.015,62.222 62.4,60.848 62.4,59.156L62.4,3.956Z" style="fill:rgb(83,141,78);stroke:rgb(83,141,78);stroke-width:0.98px;"/>
            </g>
            <g transform="matrix(58,0,0,58,9.50043,53.3333)">
                <path d="M0.71,-0L0.551,-0L0.262,-0.44C0.245,-0.466 0.234,-0.485 0.227,-0.498L0.225,-0.498C0.228,-0.473 0.229,-0.436 0.229,-0.385L0.229,-0L0.08,-0L0.08,-0.7L0.25,-0.7L0.528,-0.274C0.541,-0.255 0.552,-0.236 0.563,-0.217L0.565,-0.217C0.562,-0.233 0.561,-0.265 0.561,-0.313L0.561,-0.7L0.71,-0.7L0.71,-0Z" style="fill:white;fill-rule:nonzero;"/>
            </g>
        </g>
    </g>
    <g transform="matrix(1,0,0,1,-0.500415,236)">
        <g>
            <g transform="matrix(1.0193,0,0,1.02717,-0.10403,-0.41304)">
                <path d="M62.4,3.956C62.4,2.263 61.015,0.889 59.31,0.889L3.683,0.889C1.977,0.889 0.593,2.263 0.593,3.956L0.593,59.156C0.593,60.848 1.977,62.222 3.683,62.222L59.31,62.222C61.015,62.222 62.4,60.848 62.4,59.156L62.4,3.956Z" style="fill:rgb(83,141,78);stroke:rgb(83,141,78);stroke-width:0.98px;"/>
            </g>
            <g transform="matrix(58,0,0,58,20.5004,52.9999)">
                <rect x="0.08" y="-0.7" width="0.158" height="0.7" style="fill:white;"/>
            </g>
        </g>
    </g>
    <g>
        <g transform="matrix(-0.128223,0.376675,-0.325018,-0.110639,164.529,58.7267)">
            <path d="M0.556,105.972L0.556,76.806L92.381,76.806L92.381,49.722L128.333,91.389L92.381,133.056L92.381,105.972L0.556,105.972Z" style="fill:rgb(255,205,0);stroke:rgb(26,26,26);stroke-width:2.69px;"/>
        </g>
        <g transform="matrix(34.5134,0,0,34.5134,37.7778,150)">
            <path d="M0,-0L0.245,-0.374L0.023,-0.716L0.192,-0.716L0.335,-0.486L0.476,-0.716L0.644,-0.716L0.421,-0.368L0.666,-0L0.491,-0L0.333,-0.248L0.173,-0L0,-0Z" style="fill:rgb(255,205,0);fill-rule:nonzero;stroke:rgb(26,26,26);stroke-width:0.03px;stroke-linecap:butt;stroke-miterlimit:2;"/>
        </g>
        <g transform="matrix(34.5134,0,0,34.5134,37.7778,228.5)">
            <path d="M0,-0L0.245,-0.374L0.023,-0.716L0.192,-0.716L0.335,-0.486L0.476,-0.716L0.644,-0.716L0.421,-0.368L0.666,-0L0.491,-0L0.333,-0.248L0.173,-0L0,-0Z" style="fill:rgb(255,205,0);fill-rule:nonzero;stroke:rgb(26,26,26);stroke-width:0.03px;stroke-linecap:butt;stroke-miterlimit:2;"/>
        </g>
    </g>
</svg>
