<?xml version="1.0" encoding="UTF-8" standalone="no"?>
<!DOCTYPE svg PUBLIC "-//W3C//DTD SVG 1.1//EN" "http://www.w3.org/Graphics/SVG/1.1/DTD/svg11.dtd">
<svg width="350" height="300" viewBox="0 0 350 300" version="1.1" xmlns="http://www.w3.org/2000/svg" xmlns:xlink="http://www.w3.org/1999/xlink" xml:space="preserve" xmlns:serif="http://www.serif.com/" style="fill-rule:evenodd;clip-rule:evenodd;stroke-linecap:round;stroke-linejoin:round;stroke-miterlimit:1.5;">
    <g>
        <g>
            <g transform="matrix(1.0193,0,0,1.02717,-0.10403,-0.41304)">
                <path d="M62.4,3.956C62.4,2.263 61.015,0.889 59.31,0.889L3.683,0.889C1.977,0.889 0.593,2.263 0.593,3.956L0.593,59.156C0.593,60.848 1.977,62.222 3.683,62.222L59.31,62.222C61.015,62.222 62.4,60.848 62.4,59.156L62.4,3.956Z" style="fill:rgb(83,141,78);stroke:rgb(83,141,78);stroke-width:0.98px;"/>
            </g>
            <g transform="matrix(58,0,0,58,16.1555,52.8113)">
                <path d="M0.048,-0.027L0.048,-0.183C0.076,-0.159 0.107,-0.142 0.14,-0.13C0.173,-0.118 0.207,-0.112 0.241,-0.112C0.261,-0.112 0.278,-0.114 0.293,-0.117C0.308,-0.121 0.32,-0.126 0.33,-0.132C0.34,-0.138 0.347,-0.146 0.352,-0.155C0.357,-0.163 0.359,-0.173 0.359,-0.183C0.359,-0.196 0.355,-0.208 0.348,-0.219C0.34,-0.23 0.329,-0.24 0.316,-0.249C0.302,-0.258 0.286,-0.267 0.268,-0.275C0.249,-0.284 0.229,-0.292 0.208,-0.301C0.153,-0.324 0.112,-0.352 0.085,-0.385C0.058,-0.418 0.045,-0.457 0.045,-0.504C0.045,-0.54 0.052,-0.572 0.067,-0.598C0.082,-0.624 0.101,-0.646 0.127,-0.663C0.152,-0.68 0.181,-0.692 0.214,-0.7C0.248,-0.708 0.283,-0.712 0.32,-0.712C0.356,-0.712 0.389,-0.71 0.417,-0.705C0.445,-0.701 0.471,-0.694 0.495,-0.685L0.495,-0.539C0.483,-0.547 0.47,-0.554 0.456,-0.561C0.442,-0.567 0.428,-0.572 0.414,-0.576C0.399,-0.58 0.384,-0.583 0.37,-0.585C0.355,-0.587 0.342,-0.588 0.329,-0.588C0.311,-0.588 0.294,-0.586 0.28,-0.583C0.265,-0.579 0.253,-0.575 0.243,-0.568C0.233,-0.562 0.225,-0.555 0.219,-0.546C0.214,-0.538 0.211,-0.528 0.211,-0.517C0.211,-0.505 0.214,-0.495 0.22,-0.486C0.226,-0.476 0.235,-0.468 0.247,-0.459C0.258,-0.451 0.272,-0.443 0.288,-0.435C0.304,-0.427 0.323,-0.419 0.343,-0.41C0.371,-0.398 0.396,-0.386 0.419,-0.373C0.441,-0.36 0.46,-0.345 0.476,-0.328C0.492,-0.312 0.504,-0.293 0.513,-0.271C0.521,-0.25 0.525,-0.225 0.525,-0.197C0.525,-0.158 0.518,-0.125 0.503,-0.098C0.488,-0.072 0.468,-0.05 0.443,-0.034C0.417,-0.017 0.388,-0.006 0.354,0.001C0.321,0.009 0.285,0.012 0.248,0.012C0.209,0.012 0.173,0.009 0.138,0.002C0.103,-0.004 0.073,-0.014 0.048,-0.027Z" style="fill:white;fill-rule:nonzero;"/>
            </g>
        </g>
        <g transform="matrix(1,0,0,1,76.75,0)">
            <g transform="matrix(1.0193,0,0,1.02717,-0.10403,-0.41304)">
                <path d="M62.4,3.956C62.4,2.263 61.015,0.889 59.31,0.889L3.683,0.889C1.977,0.889 0.593,2.263 0.593,3.956L0.593,59.156C0.593,60.848 1.977,62.222 3.683,62.222L59.31,62.222C61.015,62.222 62.4,60.848 62.4,59.156L62.4,3.956Z" style="fill:rgb(83,141,78);stroke:rgb(83,141,78);stroke-width:0.98px;"/>
            </g>
            <g transform="matrix(58,0,0,58,10.1555,52.8113)">
                <path d="M0.376,0.012C0.276,0.012 0.194,-0.02 0.131,-0.086C0.068,-0.151 0.036,-0.236 0.036,-0.341C0.036,-0.451 0.068,-0.541 0.132,-0.609C0.196,-0.678 0.281,-0.712 0.387,-0.712C0.487,-0.712 0.568,-0.679 0.63,-0.614C0.691,-0.548 0.722,-0.462 0.722,-0.355C0.722,-0.245 0.69,-0.156 0.626,-0.089C0.562,-0.021 0.479,0.012 0.376,0.012ZM0.383,-0.576C0.327,-0.576 0.284,-0.555 0.251,-0.514C0.218,-0.472 0.202,-0.417 0.202,-0.349C0.202,-0.28 0.218,-0.225 0.251,-0.185C0.284,-0.144 0.326,-0.124 0.379,-0.124C0.433,-0.124 0.476,-0.144 0.508,-0.183C0.54,-0.222 0.556,-0.277 0.556,-0.346C0.556,-0.419 0.541,-0.475 0.51,-0.516C0.479,-0.556 0.437,-0.576 0.383,-0.576Z" style="fill:white;fill-rule:nonzero;"/>
            </g>
        </g>
        <g transform="matrix(1,0,0,1,153.75,0)">
            <g transform="matrix(1.0193,0,0,1.02717,-0.10403,-0.41304)">
                <path d="M62.4,3.956C62.4,2.263 61.015,0.889 59.31,0.889L3.683,0.889C1.977,0.889 0.593,2.263 0.593,3.956L0.593,59.156C0.593,60.848 1.977,62.222 3.683,62.222L59.31,62.222C61.015,62.222 62.4,60.848 62.4,59.156L62.4,3.956Z" style="fill:rgb(83,141,78);stroke:rgb(83,141,78);stroke-width:0.98px;"/>
            </g>
            <g transform="matrix(58,0,0,58,12.1555,52.8113)">
                <path d="M0.651,-0.303C0.651,-0.093 0.553,0.012 0.357,0.012C0.167,0.012 0.072,-0.09 0.072,-0.296L0.072,-0.7L0.23,-0.7L0.23,-0.294C0.23,-0.181 0.274,-0.124 0.363,-0.124C0.45,-0.124 0.493,-0.179 0.493,-0.288L0.493,-0.7L0.651,-0.7L0.651,-0.303Z" style="fill:white;fill-rule:nonzero;"/>
            </g>
        </g>
        <g transform="matrix(1,0,0,1,230.417,0)">
            <g transform="matrix(1.0193,0,0,1.02717,-0.10403,-0.41304)">
                <path d="M62.4,3.956C62.4,2.263 61.015,0.889 59.31,0.889L3.683,0.889C1.977,0.889 0.593,2.263 0.593,3.956L0.593,59.156C0.593,60.848 1.977,62.222 3.683,62.222L59.31,62.222C61.015,62.222 62.4,60.848 62.4,59.156L62.4,3.956Z" style="fill:rgb(83,141,78);stroke:rgb(83,141,78);stroke-width:0.98px;"/>
            </g>
            <g transform="matrix(58,0,0,58,13.1555,52.8113)">
                <path d="M0.667,-0L0.486,-0L0.377,-0.18C0.369,-0.194 0.361,-0.206 0.354,-0.217C0.347,-0.228 0.339,-0.237 0.331,-0.244C0.324,-0.252 0.316,-0.258 0.307,-0.262C0.299,-0.266 0.29,-0.268 0.28,-0.268L0.238,-0.268L0.238,-0L0.08,-0L0.08,-0.7L0.33,-0.7C0.5,-0.7 0.585,-0.637 0.585,-0.51C0.585,-0.485 0.581,-0.463 0.574,-0.442C0.566,-0.421 0.556,-0.403 0.542,-0.386C0.528,-0.37 0.512,-0.355 0.492,-0.343C0.473,-0.331 0.451,-0.322 0.428,-0.315L0.428,-0.313C0.438,-0.31 0.448,-0.304 0.458,-0.297C0.468,-0.29 0.477,-0.281 0.486,-0.271C0.495,-0.262 0.504,-0.251 0.512,-0.24C0.521,-0.229 0.528,-0.218 0.535,-0.207L0.667,-0ZM0.238,-0.582L0.238,-0.387L0.306,-0.387C0.34,-0.387 0.367,-0.397 0.388,-0.417C0.409,-0.436 0.419,-0.461 0.419,-0.49C0.419,-0.551 0.382,-0.582 0.309,-0.582L0.238,-0.582Z" style="fill:white;fill-rule:nonzero;"/>
            </g>
        </g>
    </g>
    <g transform="matrix(1,0,0,1,-77.2504,78)">
        <g transform="matrix(1,0,0,1,76.75,0)">
            <g transform="matrix(1.0193,0,0,1.02717,-0.10403,-0.41304)">
                <path d="M62.4,3.956C62.4,2.263 61.015,0.889 59.31,0.889L3.683,0.889C1.977,0.889 0.593,2.263 0.593,3.956L0.593,59.156C0.593,60.848 1.977,62.222 3.683,62.222L59.31,62.222C61.015,62.222 62.4,60.848 62.4,59.156L62.4,3.956Z" style="fill:rgb(83,141,78);stroke:rgb(83,141,78);stroke-width:0.98px;"/>
            </g>
            <g transform="matrix(58,0,0,58,10.1555,52.8113)">
                <path d="M0.376,0.012C0.276,0.012 0.194,-0.02 0.131,-0.086C0.068,-0.151 0.036,-0.236 0.036,-0.341C0.036,-0.451 0.068,-0.541 0.132,-0.609C0.196,-0.678 0.281,-0.712 0.387,-0.712C0.487,-0.712 0.568,-0.679 0.63,-0.614C0.691,-0.548 0.722,-0.462 0.722,-0.355C0.722,-0.245 0.69,-0.156 0.626,-0.089C0.562,-0.021 0.479,0.012 0.376,0.012ZM0.383,-0.576C0.327,-0.576 0.284,-0.555 0.251,-0.514C0.218,-0.472 0.202,-0.417 0.202,-0.349C0.202,-0.28 0.218,-0.225 0.251,-0.185C0.284,-0.144 0.326,-0.124 0.379,-0.124C0.433,-0.124 0.476,-0.144 0.508,-0.183C0.54,-0.222 0.556,-0.277 0.556,-0.346C0.556,-0.419 0.541,-0.475 0.51,-0.516C0.479,-0.556 0.437,-0.576 0.383,-0.576Z" style="fill:white;fill-rule:nonzero;"/>
            </g>
        </g>
        <g transform="matrix(1,0,0,1,153.75,0)">
            <g transform="matrix(1.0193,0,0,1.02717,-0.10403,-0.41304)">
                <path d="M62.4,3.956C62.4,2.263 61.015,0.889 59.31,0.889L3.683,0.889C1.977,0.889 0.593,2.263 0.593,3.956L0.593,59.156C0.593,60.848 1.977,62.222 3.683,62.222L59.31,62.222C61.015,62.222 62.4,60.848 62.4,59.156L62.4,3.956Z" style="fill:rgb(83,141,78);stroke:rgb(83,141,78);stroke-width:0.98px;"/>
            </g>
            <g transform="matrix(58,0,0,58,12.1555,52.8113)">
                <path d="M0.651,-0.303C0.651,-0.093 0.553,0.012 0.357,0.012C0.167,0.012 0.072,-0.09 0.072,-0.296L0.072,-0.7L0.23,-0.7L0.23,-0.294C0.23,-0.181 0.274,-0.124 0.363,-0.124C0.45,-0.124 0.493,-0.179 0.493,-0.288L0.493,-0.7L0.651,-0.7L0.651,-0.303Z" style="fill:white;fill-rule:nonzero;"/>
            </g>
        </g>
        <g transform="matrix(1,0,0,1,230.417,0)">
            <g transform="matrix(1.0193,0,0,1.02717,-0.10403,-0.41304)">
                <path d="M62.4,3.956C62.4,2.263 61.015,0.889 59.31,0.889L3.683,0.889C1.977,0.889 0.593,2.263 0.593,3.956L0.593,59.156C0.593,60.848 1.977,62.222 3.683,62.222L59.31,62.222C61.015,62.222 62.4,60.848 62.4,59.156L62.4,3.956Z" style="fill:rgb(83,141,78);stroke:rgb(83,141,78);stroke-width:0.98px;"/>
            </g>
            <g transform="matrix(58,0,0,58,13.1555,52.8113)">
                <path d="M0.667,-0L0.486,-0L0.377,-0.18C0.369,-0.194 0.361,-0.206 0.354,-0.217C0.347,-0.228 0.339,-0.237 0.331,-0.244C0.324,-0.252 0.316,-0.258 0.307,-0.262C0.299,-0.266 0.29,-0.268 0.28,-0.268L0.238,-0.268L0.238,-0L0.08,-0L0.08,-0.7L0.33,-0.7C0.5,-0.7 0.585,-0.637 0.585,-0.51C0.585,-0.485 0.581,-0.463 0.574,-0.442C0.566,-0.421 0.556,-0.403 0.542,-0.386C0.528,-0.37 0.512,-0.355 0.492,-0.343C0.473,-0.331 0.451,-0.322 0.428,-0.315L0.428,-0.313C0.438,-0.31 0.448,-0.304 0.458,-0.297C0.468,-0.29 0.477,-0.281 0.486,-0.271C0.495,-0.262 0.504,-0.251 0.512,-0.24C0.521,-0.229 0.528,-0.218 0.535,-0.207L0.667,-0ZM0.238,-0.582L0.238,-0.387L0.306,-0.387C0.34,-0.387 0.367,-0.397 0.388,-0.417C0.409,-0.436 0.419,-0.461 0.419,-0.49C0.419,-0.551 0.382,-0.582 0.309,-0.582L0.238,-0.582Z" style="fill:white;fill-rule:nonzero;"/>
            </g>
        </g>
    </g>
    <g transform="matrix(1,0,0,1,-77.2504,156.667)">
        <g transform="matrix(1,0,0,1,76.75,0)">
            <g transform="matrix(1.0193,0,0,1.02717,-0.10403,-0.41304)">
                <path d="M62.4,3.956C62.4,2.263 61.015,0.889 59.31,0.889L3.683,0.889C1.977,0.889 0.593,2.263 0.593,3.956L0.593,59.156C0.593,60.848 1.977,62.222 3.683,62.222L59.31,62.222C61.015,62.222 62.4,60.848 62.4,59.156L62.4,3.956Z" style="fill:rgb(83,141,78);stroke:rgb(83,141,78);stroke-width:0.98px;"/>
            </g>
            <g transform="matrix(58,0,0,58,10.1555,52.8113)">
                <path d="M0.376,0.012C0.276,0.012 0.194,-0.02 0.131,-0.086C0.068,-0.151 0.036,-0.236 0.036,-0.341C0.036,-0.451 0.068,-0.541 0.132,-0.609C0.196,-0.678 0.281,-0.712 0.387,-0.712C0.487,-0.712 0.568,-0.679 0.63,-0.614C0.691,-0.548 0.722,-0.462 0.722,-0.355C0.722,-0.245 0.69,-0.156 0.626,-0.089C0.562,-0.021 0.479,0.012 0.376,0.012ZM0.383,-0.576C0.327,-0.576 0.284,-0.555 0.251,-0.514C0.218,-0.472 0.202,-0.417 0.202,-0.349C0.202,-0.28 0.218,-0.225 0.251,-0.185C0.284,-0.144 0.326,-0.124 0.379,-0.124C0.433,-0.124 0.476,-0.144 0.508,-0.183C0.54,-0.222 0.556,-0.277 0.556,-0.346C0.556,-0.419 0.541,-0.475 0.51,-0.516C0.479,-0.556 0.437,-0.576 0.383,-0.576Z" style="fill:white;fill-rule:nonzero;"/>
            </g>
        </g>
        <g transform="matrix(1,0,0,1,153.75,0)">
            <g transform="matrix(1.0193,0,0,1.02717,-0.10403,-0.41304)">
                <path d="M62.4,3.956C62.4,2.263 61.015,0.889 59.31,0.889L3.683,0.889C1.977,0.889 0.593,2.263 0.593,3.956L0.593,59.156C0.593,60.848 1.977,62.222 3.683,62.222L59.31,62.222C61.015,62.222 62.4,60.848 62.4,59.156L62.4,3.956Z" style="fill:rgb(83,141,78);stroke:rgb(83,141,78);stroke-width:0.98px;"/>
            </g>
            <g transform="matrix(58,0,0,58,12.1555,52.8113)">
                <path d="M0.696,-0L0.524,-0L0.474,-0.156L0.225,-0.156L0.176,-0L0.005,-0L0.26,-0.7L0.447,-0.7L0.696,-0ZM0.438,-0.277L0.363,-0.512C0.357,-0.53 0.353,-0.551 0.351,-0.575L0.347,-0.575C0.346,-0.555 0.341,-0.534 0.335,-0.514L0.259,-0.277L0.438,-0.277Z" style="fill:white;fill-rule:nonzero;"/>
            </g>
        </g>
        <g transform="matrix(1,0,0,1,230.417,0)">
            <g transform="matrix(1.0193,0,0,1.02717,-0.10403,-0.41304)">
                <path d="M62.4,3.956C62.4,2.263 61.015,0.889 59.31,0.889L3.683,0.889C1.977,0.889 0.593,2.263 0.593,3.956L0.593,59.156C0.593,60.848 1.977,62.222 3.683,62.222L59.31,62.222C61.015,62.222 62.4,60.848 62.4,59.156L62.4,3.956Z" style="fill:rgb(83,141,78);stroke:rgb(83,141,78);stroke-width:0.98px;"/>
            </g>
            <g transform="matrix(58,0,0,58,13.1555,52.8113)">
                <path d="M0.667,-0L0.486,-0L0.377,-0.18C0.369,-0.194 0.361,-0.206 0.354,-0.217C0.347,-0.228 0.339,-0.237 0.331,-0.244C0.324,-0.252 0.316,-0.258 0.307,-0.262C0.299,-0.266 0.29,-0.268 0.28,-0.268L0.238,-0.268L0.238,-0L0.08,-0L0.08,-0.7L0.33,-0.7C0.5,-0.7 0.585,-0.637 0.585,-0.51C0.585,-0.485 0.581,-0.463 0.574,-0.442C0.566,-0.421 0.556,-0.403 0.542,-0.386C0.528,-0.37 0.512,-0.355 0.492,-0.343C0.473,-0.331 0.451,-0.322 0.428,-0.315L0.428,-0.313C0.438,-0.31 0.448,-0.304 0.458,-0.297C0.468,-0.29 0.477,-0.281 0.486,-0.271C0.495,-0.262 0.504,-0.251 0.512,-0.24C0.521,-0.229 0.528,-0.218 0.535,-0.207L0.667,-0ZM0.238,-0.582L0.238,-0.387L0.306,-0.387C0.34,-0.387 0.367,-0.397 0.388,-0.417C0.409,-0.436 0.419,-0.461 0.419,-0.49C0.419,-0.551 0.382,-0.582 0.309,-0.582L0.238,-0.582Z" style="fill:white;fill-rule:nonzero;"/>
            </g>
        </g>
    </g>
    <g transform="matrix(1,0,0,1,-77.2504,237)">
        <g transform="matrix(1,0,0,1,76.75,0)">
            <g transform="matrix(1.0193,0,0,1.02717,-0.10403,-0.41304)">
                <path d="M62.4,3.956C62.4,2.263 61.015,0.889 59.31,0.889L3.683,0.889C1.977,0.889 0.593,2.263 0.593,3.956L0.593,59.156C0.593,60.848 1.977,62.222 3.683,62.222L59.31,62.222C61.015,62.222 62.4,60.848 62.4,59.156L62.4,3.956Z" style="fill:rgb(181,159,59);stroke:rgb(181,159,59);stroke-width:0.98px;"/>
            </g>
            <g transform="matrix(58,0,0,58,4.15547,52.8113)">
                <path d="M0.878,-0L0.722,-0L0.722,-0.419C0.722,-0.464 0.724,-0.514 0.728,-0.569L0.724,-0.569C0.716,-0.526 0.709,-0.495 0.702,-0.476L0.538,-0L0.409,-0L0.242,-0.471C0.238,-0.484 0.23,-0.516 0.22,-0.569L0.216,-0.569C0.22,-0.5 0.222,-0.439 0.222,-0.387L0.222,-0L0.08,-0L0.08,-0.7L0.311,-0.7L0.454,-0.285C0.465,-0.252 0.474,-0.219 0.479,-0.185L0.482,-0.185C0.491,-0.224 0.5,-0.257 0.51,-0.286L0.653,-0.7L0.878,-0.7L0.878,-0Z" style="fill:white;fill-rule:nonzero;"/>
            </g>
        </g>
        <g transform="matrix(1,0,0,1,153.75,0)">
            <g transform="matrix(1.0193,0,0,1.02717,-0.10403,-0.41304)">
                <path d="M62.4,3.956C62.4,2.263 61.015,0.889 59.31,0.889L3.683,0.889C1.977,0.889 0.593,2.263 0.593,3.956L0.593,59.156C0.593,60.848 1.977,62.222 3.683,62.222L59.31,62.222C61.015,62.222 62.4,60.848 62.4,59.156L62.4,3.956Z" style="fill:white;stroke:rgb(56,64,71);stroke-width:0.98px;"/>
            </g>
            <g transform="matrix(58,0,0,58,12.1555,52.8113)">
                <path d="M0.696,-0L0.524,-0L0.474,-0.156L0.225,-0.156L0.176,-0L0.005,-0L0.26,-0.7L0.447,-0.7L0.696,-0ZM0.438,-0.277L0.363,-0.512C0.357,-0.53 0.353,-0.551 0.351,-0.575L0.347,-0.575C0.346,-0.555 0.341,-0.534 0.335,-0.514L0.259,-0.277L0.438,-0.277Z" style="fill:rgb(56,64,71);fill-rule:nonzero;"/>
            </g>
        </g>
        <g transform="matrix(1,0,0,1,230.417,0)">
            <g transform="matrix(1.0193,0,0,1.02717,-0.10403,-0.41304)">
                <path d="M62.4,3.956C62.4,2.263 61.015,0.889 59.31,0.889L3.683,0.889C1.977,0.889 0.593,2.263 0.593,3.956L0.593,59.156C0.593,60.848 1.977,62.222 3.683,62.222L59.31,62.222C61.015,62.222 62.4,60.848 62.4,59.156L62.4,3.956Z" style="fill:white;stroke:rgb(56,64,71);stroke-width:0.98px;"/>
            </g>
            <g transform="matrix(58,0,0,58,13.1555,52.8113)">
                <path d="M0.667,-0L0.486,-0L0.377,-0.18C0.369,-0.194 0.361,-0.206 0.354,-0.217C0.347,-0.228 0.339,-0.237 0.331,-0.244C0.324,-0.252 0.316,-0.258 0.307,-0.262C0.299,-0.266 0.29,-0.268 0.28,-0.268L0.238,-0.268L0.238,-0L0.08,-0L0.08,-0.7L0.33,-0.7C0.5,-0.7 0.585,-0.637 0.585,-0.51C0.585,-0.485 0.581,-0.463 0.574,-0.442C0.566,-0.421 0.556,-0.403 0.542,-0.386C0.528,-0.37 0.512,-0.355 0.492,-0.343C0.473,-0.331 0.451,-0.322 0.428,-0.315L0.428,-0.313C0.438,-0.31 0.448,-0.304 0.458,-0.297C0.468,-0.29 0.477,-0.281 0.486,-0.271C0.495,-0.262 0.504,-0.251 0.512,-0.24C0.521,-0.229 0.528,-0.218 0.535,-0.207L0.667,-0ZM0.238,-0.582L0.238,-0.387L0.306,-0.387C0.34,-0.387 0.367,-0.397 0.388,-0.417C0.409,-0.436 0.419,-0.461 0.419,-0.49C0.419,-0.551 0.382,-0.582 0.309,-0.582L0.238,-0.582Z" style="fill:rgb(56,64,71);fill-rule:nonzero;"/>
            </g>
        </g>
    </g>
    <g transform="matrix(-1.0355,1.34542e-16,-1.26813e-16,-1.09862,352.498,475.915)">
        <path d="M340.412,225.346L2.413,225.346" style="fill:none;stroke:rgb(153,153,153);stroke-width:1.87px;"/>
    </g>
</svg>
