<?xml version="1.0" encoding="UTF-8" standalone="no"?>
<!DOCTYPE svg PUBLIC "-//W3C//DTD SVG 1.1//EN" "http://www.w3.org/Graphics/SVG/1.1/DTD/svg11.dtd">
<svg width="64" height="64" viewBox="0 0 64 64" version="1.1" xmlns="http://www.w3.org/2000/svg" xmlns:xlink="http://www.w3.org/1999/xlink" xml:space="preserve" xmlns:serif="http://www.serif.com/" style="fill-rule:evenodd;clip-rule:evenodd;stroke-linejoin:round;stroke-miterlimit:2;">
    <g transform="matrix(2.69324,0,0,2.69542,-0.308701,-0.339824)">
        <path d="M17.79,3.77C13.963,1.082 8.938,0.75 4.79,2.91C4.694,2.961 4.574,2.941 4.5,2.86L1.94,0.27C1.793,0.132 1.579,0.089 1.39,0.16C1.205,0.239 1.084,0.419 1.08,0.62L1.08,7.32C1.085,7.592 1.308,7.815 1.58,7.82L8.28,7.82C8.481,7.819 8.663,7.696 8.74,7.51C8.804,7.333 8.761,7.135 8.63,7L6.78,5.11C6.721,5.054 6.698,4.969 6.72,4.89C6.733,4.807 6.791,4.738 6.87,4.71C10.002,3.445 13.572,3.86 16.33,5.81C18.896,7.636 20.423,10.597 20.423,13.746C20.423,16.852 18.938,19.777 16.43,21.61C16.108,21.845 15.917,22.221 15.917,22.62C15.917,22.886 16.002,23.145 16.16,23.36C16.39,23.682 16.764,23.873 17.16,23.87C17.422,23.869 17.678,23.785 17.89,23.63C21.044,21.325 22.912,17.646 22.912,13.74C22.912,9.786 20.998,6.067 17.78,3.77L17.79,3.77Z" style="fill:rgb(56,64,71);fill-rule:nonzero;"/>
        <g transform="matrix(0.3713,0,0,0.543312,-3.89267,-1.83659)">
            <g transform="matrix(27,0,0,27,11.4963,39.4074)">
                <path d="M0.051,-0.449L0.193,-0.449L0.193,-0.16C0.193,-0.145 0.196,-0.133 0.203,-0.123C0.21,-0.113 0.22,-0.108 0.232,-0.108C0.259,-0.108 0.273,-0.128 0.273,-0.168L0.273,-0.449L0.415,-0.449L0.415,-0.189C0.415,-0.123 0.4,-0.072 0.369,-0.037C0.338,-0.002 0.293,0.015 0.235,0.015C0.17,0.015 0.123,-0.003 0.094,-0.039C0.065,-0.074 0.051,-0.119 0.051,-0.173L0.051,-0.449Z" style="fill:rgb(56,64,71);fill-rule:nonzero;"/>
            </g>
            <g transform="matrix(27,0,0,27,23.0734,39.4074)">
                <path d="M0.196,-0.449L0.196,-0.388L0.198,-0.388C0.231,-0.439 0.272,-0.464 0.32,-0.464C0.351,-0.464 0.376,-0.453 0.394,-0.433C0.413,-0.412 0.422,-0.384 0.422,-0.348L0.422,-0L0.28,-0L0.28,-0.277C0.28,-0.292 0.276,-0.305 0.269,-0.314C0.262,-0.324 0.253,-0.329 0.241,-0.329C0.211,-0.329 0.196,-0.31 0.196,-0.272L0.196,-0L0.054,-0L0.054,-0.449L0.196,-0.449Z" style="fill:rgb(56,64,71);fill-rule:nonzero;"/>
            </g>
            <g transform="matrix(27,0,0,27,34.822,39.4074)">
                <path d="M0.278,-0.688L0.419,-0.688L0.419,-0L0.277,-0L0.277,-0.059L0.275,-0.059C0.243,-0.01 0.208,0.015 0.168,0.015C0.126,0.015 0.093,-0.007 0.067,-0.05C0.042,-0.094 0.029,-0.152 0.029,-0.225C0.029,-0.298 0.042,-0.356 0.068,-0.399C0.094,-0.442 0.128,-0.464 0.171,-0.464C0.21,-0.464 0.245,-0.442 0.278,-0.397L0.278,-0.688ZM0.278,-0.228C0.278,-0.302 0.26,-0.339 0.224,-0.339C0.187,-0.339 0.169,-0.3 0.169,-0.221C0.169,-0.186 0.174,-0.159 0.184,-0.14C0.194,-0.121 0.208,-0.112 0.225,-0.112C0.241,-0.112 0.254,-0.122 0.264,-0.142C0.273,-0.162 0.278,-0.191 0.278,-0.228Z" style="fill:rgb(56,64,71);fill-rule:nonzero;"/>
            </g>
            <g transform="matrix(27,0,0,27,46.5969,39.4074)">
                <path d="M0.223,-0.465C0.288,-0.465 0.337,-0.443 0.371,-0.4C0.405,-0.357 0.422,-0.297 0.422,-0.22C0.422,-0.145 0.404,-0.087 0.369,-0.046C0.334,-0.004 0.285,0.016 0.223,0.016C0.164,0.016 0.116,-0.005 0.081,-0.047C0.046,-0.089 0.029,-0.147 0.029,-0.22C0.029,-0.297 0.045,-0.357 0.079,-0.4C0.112,-0.443 0.16,-0.465 0.223,-0.465ZM0.224,-0.111C0.243,-0.111 0.257,-0.119 0.266,-0.137C0.275,-0.154 0.28,-0.183 0.28,-0.225C0.28,-0.266 0.275,-0.295 0.266,-0.312C0.257,-0.329 0.243,-0.337 0.225,-0.337C0.207,-0.337 0.194,-0.329 0.184,-0.313C0.175,-0.297 0.17,-0.267 0.17,-0.224C0.17,-0.149 0.188,-0.111 0.224,-0.111Z" style="fill:rgb(56,64,71);fill-rule:nonzero;"/>
            </g>
        </g>
    </g>
</svg>
