<?xml version="1.0" encoding="UTF-8" standalone="no"?>
<!DOCTYPE svg PUBLIC "-//W3C//DTD SVG 1.1//EN" "http://www.w3.org/Graphics/SVG/1.1/DTD/svg11.dtd">
<svg width="64" height="64" viewBox="0 0 64 64" version="1.1" xmlns="http://www.w3.org/2000/svg" xmlns:xlink="http://www.w3.org/1999/xlink" xml:space="preserve" xmlns:serif="http://www.serif.com/" style="fill-rule:evenodd;clip-rule:evenodd;stroke-linejoin:round;stroke-miterlimit:2;">
    <g transform="matrix(2.69324,0,0,2.69542,-0.308701,-0.339824)">
        <path d="M17.79,3.77C13.963,1.082 8.938,0.75 4.79,2.91C4.694,2.961 4.574,2.941 4.5,2.86L1.94,0.27C1.793,0.132 1.579,0.089 1.39,0.16C1.205,0.239 1.084,0.419 1.08,0.62L1.08,7.32C1.085,7.592 1.308,7.815 1.58,7.82L8.28,7.82C8.481,7.819 8.663,7.696 8.74,7.51C8.804,7.333 8.761,7.135 8.63,7L6.78,5.11C6.721,5.054 6.698,4.969 6.72,4.89C6.733,4.807 6.791,4.738 6.87,4.71C10.002,3.445 13.572,3.86 16.33,5.81C18.896,7.636 20.423,10.597 20.423,13.746C20.423,16.852 18.938,19.777 16.43,21.61C16.108,21.845 15.917,22.221 15.917,22.62C15.917,22.886 16.002,23.145 16.16,23.36C16.39,23.682 16.764,23.873 17.16,23.87C17.422,23.869 17.678,23.785 17.89,23.63C21.044,21.325 22.912,17.646 22.912,13.74C22.912,9.786 20.998,6.067 17.78,3.77L17.79,3.77Z" style="fill:rgb(56,64,71);fill-rule:nonzero;"/>
    </g>
</svg>
