<?xml version="1.0" encoding="UTF-8" standalone="no"?>
<!DOCTYPE svg PUBLIC "-//W3C//DTD SVG 1.1//EN" "http://www.w3.org/Graphics/SVG/1.1/DTD/svg11.dtd">
<svg width="64" height="64" viewBox="0 0 64 64" version="1.1" xmlns="http://www.w3.org/2000/svg" xmlns:xlink="http://www.w3.org/1999/xlink" xml:space="preserve" xmlns:serif="http://www.serif.com/" style="fill-rule:evenodd;clip-rule:evenodd;stroke-linejoin:round;stroke-miterlimit:2;">
    <g transform="matrix(0.951691,0,0,0.924528,7.03749,3.57918)">
        <path d="M55.424,50.816C55.424,48.944 53.947,47.424 52.129,47.424L45.471,47.424C43.653,47.424 42.176,48.944 42.176,50.816L42.176,57.6C42.176,59.472 43.653,60.992 45.471,60.992L52.129,60.992C53.947,60.992 55.424,59.472 55.424,57.6L55.424,50.816Z" style="fill:white;"/>
    </g>
    <g transform="matrix(1.33753,0,0,1.33753,-14.4445,-21.5867)">
        <path d="M53.178,57.931C52.965,58.351 52.535,58.646 52.039,58.665C52.535,58.646 52.965,58.351 53.178,57.931ZM53.22,57.839C53.212,57.859 53.203,57.879 53.194,57.898C53.203,57.879 53.212,57.859 53.22,57.839ZM53.231,57.812C53.23,57.815 53.229,57.817 53.228,57.82C53.229,57.817 53.23,57.815 53.231,57.812ZM53.272,57.69C53.268,57.705 53.264,57.719 53.259,57.734C53.264,57.719 53.268,57.705 53.272,57.69ZM53.304,57.547C53.298,57.581 53.291,57.615 53.283,57.649C53.291,57.615 53.298,57.581 53.304,57.547ZM53.317,57.438C53.316,57.453 53.314,57.467 53.313,57.482C53.314,57.467 53.316,57.453 53.317,57.438ZM43.736,58.649C43.456,57.912 43.322,57.115 43.322,56.288C43.326,52.084 46.784,48.625 50.989,48.622C51.805,48.622 52.593,48.752 53.321,49.028L53.339,49.033C56.413,50.003 58.651,52.899 58.655,56.278L58.655,56.298C58.65,60.5 55.191,63.955 50.989,63.955C47.616,63.955 44.722,61.729 43.743,58.667L43.736,58.649ZM53.321,57.359L53.32,57.385C53.321,57.376 53.321,57.368 53.321,57.359ZM52.156,55.288L54.656,55.288C55.021,55.288 55.322,55.589 55.322,55.955L55.322,56.622C55.322,56.987 55.021,57.288 54.656,57.288L52.156,57.288C52.064,57.288 51.989,57.364 51.989,57.455L51.989,59.955C51.989,60.321 51.688,60.622 51.322,60.622L50.656,60.622C50.29,60.622 49.989,60.321 49.989,59.955L49.989,57.455C49.989,57.364 49.914,57.288 49.822,57.288L47.322,57.288C46.956,57.288 46.656,56.987 46.656,56.622L46.656,55.955C46.656,55.589 46.956,55.288 47.322,55.288L49.822,55.288C49.914,55.288 49.989,55.213 49.989,55.122L49.989,52.622C49.989,52.256 50.29,51.955 50.656,51.955L51.322,51.955C51.688,51.955 51.989,52.256 51.989,52.622L51.989,55.122C51.989,55.213 52.064,55.288 52.156,55.288Z" style="fill:rgb(83,141,78);"/>
    </g>
    <g transform="matrix(2.66667,0,0,2.66667,0,0)">
        <path d="M15.5,7L8.5,7C7.677,7 7,7.677 7,8.5L7,10C7,10.549 7.451,11 8,11C8.549,11 9,10.549 9,10L9,9.25C9,9.113 9.113,9 9.25,9L10.75,9C10.887,9 11,9.113 11,9.25L11,15.25C11,15.387 10.887,15.5 10.75,15.5L10,15.5C9.451,15.5 9,15.951 9,16.5C9,17.049 9.451,17.5 10,17.5L14,17.5C14.549,17.5 15,17.049 15,16.5C15,15.951 14.549,15.5 14,15.5L13.25,15.5C13.113,15.5 13,15.387 13,15.25L13,9.25C13,9.113 13.113,9 13.25,9L14.75,9C14.887,9 15,9.113 15,9.25L15,10C15,10.549 15.451,11 16,11C16.549,11 17,10.549 17,10L17,8.5C17,7.677 16.323,7 15.5,7Z" style="fill:rgb(56,64,71);fill-rule:nonzero;"/>
    </g>
    <path d="M41.195,58.667C42.026,60.752 43.364,62.581 45.058,64L5.334,64C2.408,64 0,61.592 0,58.667L0,5.333C0,2.408 2.408,0 5.334,0L58.688,0C61.614,0 64.022,2.408 64.022,5.333L64.022,45.198C62.61,43.482 60.78,42.123 58.688,41.276L58.688,6.667C58.688,5.935 58.086,5.333 57.355,5.333L6.667,5.333C5.936,5.333 5.334,5.935 5.334,6.667L5.334,57.333C5.334,58.065 5.936,58.667 6.667,58.667L41.195,58.667Z" style="fill:rgb(56,64,71);"/>
</svg>
