<?xml version="1.0" encoding="UTF-8" standalone="no"?>
<!DOCTYPE svg PUBLIC "-//W3C//DTD SVG 1.1//EN" "http://www.w3.org/Graphics/SVG/1.1/DTD/svg11.dtd">
<svg width="64" height="64" viewBox="0 0 64 64" version="1.1" xmlns="http://www.w3.org/2000/svg" xmlns:xlink="http://www.w3.org/1999/xlink" xml:space="preserve" xmlns:serif="http://www.serif.com/" style="fill-rule:evenodd;clip-rule:evenodd;stroke-linejoin:round;stroke-miterlimit:2;">
    <g transform="matrix(1.62224,0,0,1.62118,12.5331,12.5458)">
        <path d="M22.66,5.58C23.241,4.998 23.241,4.042 22.66,3.46L20.54,1.34C20.26,1.057 19.878,0.897 19.48,0.897C19.082,0.897 18.7,1.057 18.42,1.34L12.18,7.58C12.078,7.671 11.922,7.671 11.82,7.58L5.58,1.34C5.3,1.057 4.918,0.897 4.52,0.897C4.122,0.897 3.74,1.057 3.46,1.34L1.34,3.46C0.759,4.042 0.759,4.998 1.34,5.58L7.58,11.82C7.629,11.867 7.657,11.932 7.657,12C7.657,12.068 7.629,12.133 7.58,12.18L1.34,18.42C0.759,19.002 0.759,19.958 1.34,20.54L3.46,22.66C3.74,22.943 4.122,23.103 4.52,23.103C4.918,23.103 5.3,22.943 5.58,22.66L11.82,16.42C11.922,16.329 12.078,16.329 12.18,16.42L18.42,22.66C18.699,22.944 19.082,23.103 19.48,23.1C19.879,23.105 20.262,22.946 20.54,22.66L22.66,20.54C23.241,19.958 23.241,19.002 22.66,18.42L16.42,12.18C16.371,12.133 16.343,12.068 16.343,12C16.343,11.932 16.371,11.867 16.42,11.82L22.66,5.58Z" style="fill:rgb(227,129,125);fill-rule:nonzero;"/>
    </g>
    <g transform="matrix(2.66667,0,0,2.66667,0,0)">
        <path d="M19.17,0L4.82,-0C2.176,-0 -0,2.176 -0,4.82L0,19.17C0,21.82 2.18,24 4.83,24L19.17,24C21.818,23.995 23.995,21.818 24,19.17L24,4.82C23.995,2.174 21.816,-0 19.17,0ZM22,19.17C22,20.722 20.722,22 19.17,22L4.83,22C3.278,22 2,20.722 2,19.17L2,4.82C2.005,3.271 3.281,2 4.83,2L19.17,2C20.719,2 21.995,3.271 22,4.82L22,19.17Z" style="fill:rgb(56,64,71);fill-rule:nonzero;"/>
    </g>
</svg>
