<svg xmlns="http://www.w3.org/2000/svg" width="64" height="64" viewBox="0 0 64 64">
  
<g transform="matrix(2.6666666666666665,0,0,2.6666666666666665,0,0)">
	<path d="M19.7,9.14a.27.27,0,0,0-.23,0,.26.26,0,0,0-.11.21V11.5a.5.5,0,0,1-.5.5.51.51,0,0,1-.5-.5V9a1.61,1.61,0,0,0-1.5-1h-.25a.25.25,0,0,0-.25.25V10.5a.5.5,0,0,1-.5.5.51.51,0,0,1-.5-.5V8a1.61,1.61,0,0,0-1.5-1h-.25a.25.25,0,0,0-.25.25V10.5a.5.5,0,0,1-.5.5.51.51,0,0,1-.5-.5V3a2,2,0,0,0-4,0V14.08a.25.25,0,0,1-.17.23.23.23,0,0,1-.28-.09L6.24,11.87A2,2,0,0,0,3,14.18l6,8.4a1,1,0,0,0,.81.42h8.72a1,1,0,0,0,1-.73L21,17a10.92,10.92,0,0,0,.39-2.88V11.5A2.5,2.5,0,0,0,19.7,9.14Z" style="fill:white">
		<animate
			attributeName="opacity"
			dur="2s"
			values="0.2;1;0.2"
			repeatCount="indefinite"
			begin="0.1"/>
	</path>
</g>
</svg>
