<?xml version="1.0" encoding="UTF-8" standalone="no"?>
<!DOCTYPE svg PUBLIC "-//W3C//DTD SVG 1.1//EN" "http://www.w3.org/Graphics/SVG/1.1/DTD/svg11.dtd">
<svg width="64" height="64" viewBox="0 0 64 64" version="1.1" xmlns="http://www.w3.org/2000/svg" xmlns:xlink="http://www.w3.org/1999/xlink" xml:space="preserve" xmlns:serif="http://www.serif.com/" style="fill-rule:evenodd;clip-rule:evenodd;stroke-linejoin:round;stroke-miterlimit:2;">
    <g transform="matrix(2.78261,0,0,2.78261,-1.3913,-1.3913)">
        <path d="M12,23.5C18.309,23.5 23.5,18.309 23.5,12C23.5,5.691 18.309,0.5 12,0.5C5.691,0.5 0.5,5.691 0.5,12C0.505,18.307 5.693,23.495 12,23.5ZM5.5,11.5C5.5,10.951 5.951,10.5 6.5,10.5L17.5,10.5C18.049,10.5 18.5,10.951 18.5,11.5L18.5,12.5C18.5,13.049 18.049,13.5 17.5,13.5L6.5,13.5C5.951,13.5 5.5,13.049 5.5,12.5L5.5,11.5Z" style="fill:rgb(214,128,124);fill-rule:nonzero;"/>
    </g>
</svg>
