<?xml version="1.0" encoding="UTF-8" standalone="no"?>
<!DOCTYPE svg PUBLIC "-//W3C//DTD SVG 1.1//EN" "http://www.w3.org/Graphics/SVG/1.1/DTD/svg11.dtd">
<svg width="64" height="64" viewBox="0 0 64 64" version="1.1" xmlns="http://www.w3.org/2000/svg" xmlns:xlink="http://www.w3.org/1999/xlink" xml:space="preserve" xmlns:serif="http://www.serif.com/" style="fill-rule:evenodd;clip-rule:evenodd;stroke-linejoin:round;stroke-miterlimit:2;">
    <g transform="matrix(2.66667,0,0,2.66667,0,0)">
        <path d="M19.17,0L4.82,-0C2.176,-0 -0,2.176 -0,4.82L0,19.17C0,21.82 2.18,24 4.83,24L19.17,24C21.818,23.995 23.995,21.818 24,19.17L24,4.82C23.995,2.174 21.816,-0 19.17,0ZM22,19.17C22,20.722 20.722,22 19.17,22L4.83,22C3.278,22 2,20.722 2,19.17L2,4.82C2.005,3.271 3.281,2 4.83,2L19.17,2C20.719,2 21.995,3.271 22,4.82L22,19.17Z" style="fill:rgb(204,204,204);fill-rule:nonzero;"/>
    </g>
    <g transform="matrix(3.59153,0,0,3.59153,-11.5565,-11.4152)">
        <path d="M17.5,7.5C16.951,7.5 16.5,7.951 16.5,8.5L16.5,11.25C16.5,11.387 16.387,11.5 16.25,11.5L10.75,11.5C10.613,11.5 10.5,11.387 10.5,11.25L10.5,9.494C10.5,8.946 10.049,8.494 9.5,8.494C9.233,8.494 8.978,8.601 8.79,8.79L5.79,11.79C5.405,12.177 5.405,12.813 5.79,13.2L8.79,16.2C8.977,16.391 9.233,16.499 9.5,16.5C10.049,16.5 10.5,16.049 10.5,15.5L10.5,13.75C10.5,13.613 10.613,13.5 10.75,13.5L16.5,13.5C17.597,13.5 18.5,12.597 18.5,11.5L18.5,8.5C18.5,7.951 18.049,7.5 17.5,7.5Z" style="fill:rgb(96,166,90);fill-rule:nonzero;"/>
    </g>
</svg>
