<?xml version="1.0" encoding="UTF-8" standalone="no"?>
<!DOCTYPE svg PUBLIC "-//W3C//DTD SVG 1.1//EN" "http://www.w3.org/Graphics/SVG/1.1/DTD/svg11.dtd">
<svg width="64" height="64" viewBox="0 0 64 64" version="1.1" xmlns="http://www.w3.org/2000/svg" xmlns:xlink="http://www.w3.org/1999/xlink" xml:space="preserve" xmlns:serif="http://www.serif.com/" style="fill-rule:evenodd;clip-rule:evenodd;stroke-linejoin:round;stroke-miterlimit:2;">
    <g transform="matrix(2.66667,0,0,2.66667,0,0)">
        <path d="M24,12C24,5.417 18.583,0 12,0C5.417,-0 0,5.417 0,12C-0,18.583 5.417,24 12,24C18.583,24 24,18.583 24,12ZM7.55,16.45L10.23,13.77C10.279,13.723 10.307,13.658 10.307,13.59C10.307,13.522 10.279,13.457 10.23,13.41L5.82,9C5.723,8.909 5.668,8.783 5.668,8.65C5.668,8.517 5.723,8.391 5.82,8.3L8.28,5.82C8.374,5.725 8.502,5.672 8.635,5.672C8.768,5.672 8.896,5.725 8.99,5.82L13.41,10.23C13.455,10.278 13.519,10.306 13.585,10.306C13.651,10.306 13.715,10.278 13.76,10.23L16.44,7.56C16.534,7.462 16.664,7.407 16.8,7.407C17.074,7.407 17.3,7.633 17.3,7.907L17.3,16.8C17.3,17.074 17.074,17.3 16.8,17.3L7.907,17.3C7.633,17.3 7.407,17.074 7.407,16.8C7.407,16.669 7.458,16.543 7.55,16.45Z" style="fill:rgb(181,159,59);fill-rule:nonzero;"/>
    </g>
</svg>
