<?xml version="1.0" encoding="UTF-8" standalone="no"?>
<!DOCTYPE svg PUBLIC "-//W3C//DTD SVG 1.1//EN" "http://www.w3.org/Graphics/SVG/1.1/DTD/svg11.dtd">
<svg width="64" height="64" viewBox="0 0 64 64" version="1.1" xmlns="http://www.w3.org/2000/svg" xmlns:xlink="http://www.w3.org/1999/xlink" xml:space="preserve" xmlns:serif="http://www.serif.com/" style="fill-rule:evenodd;clip-rule:evenodd;stroke-linejoin:round;stroke-miterlimit:2;">
    <g transform="matrix(0.853881,0,0,0.886871,4.56594,2.83567)">
        <path d="M45.037,18.218C45.037,14.77 42.129,11.97 38.548,11.97L25.57,11.97C21.989,11.97 19.081,14.77 19.081,18.218L19.081,48.152C19.081,51.601 21.989,54.4 25.57,54.4L38.548,54.4C42.129,54.4 45.037,51.601 45.037,48.152L45.037,18.218Z" style="fill:rgb(27,31,34);"/>
    </g>
    <g transform="matrix(2.66667,0,0,2.66667,0,0)">
        <path d="M12,0C5.417,0 -0,5.417 0,12C0,18.583 5.417,24 12,24C18.583,24 24,18.583 24,12C24,5.417 18.583,0 12,0ZM12,19C11.177,19 10.5,18.323 10.5,17.5C10.5,16.677 11.177,16 12,16C12.823,16 13.5,16.677 13.5,17.5C13.5,18.323 12.823,19 12,19ZM13.6,12.92C13.235,13.079 12.999,13.442 13,13.84C13,14.389 12.549,14.84 12,14.84C11.451,14.84 11,14.389 11,13.84C11,12.649 11.709,11.566 12.8,11.09C13.527,10.772 14,10.051 14,9.257C14,8.16 13.097,7.257 12,7.257C10.905,7.257 10.004,8.155 10,9.25C10,9.799 9.549,10.25 9,10.25C8.451,10.25 8,9.799 8,9.25C8.002,7.057 9.807,5.254 12,5.254C14.194,5.254 16,7.06 16,9.254C16,10.841 15.055,12.285 13.6,12.92Z" style="fill:rgb(227,227,227);fill-rule:nonzero;"/>
    </g>
</svg>
