<?xml version="1.0" encoding="UTF-8" standalone="no"?>
<!DOCTYPE svg PUBLIC "-//W3C//DTD SVG 1.1//EN" "http://www.w3.org/Graphics/SVG/1.1/DTD/svg11.dtd">
<svg width="64" height="64" viewBox="0 0 64 64" version="1.1" xmlns="http://www.w3.org/2000/svg" xmlns:xlink="http://www.w3.org/1999/xlink" xml:space="preserve" xmlns:serif="http://www.serif.com/" style="fill-rule:evenodd;clip-rule:evenodd;stroke-linejoin:round;stroke-miterlimit:2;">
    <g transform="matrix(1.00264,0,0,1.00264,-0.0594162,-0.0594158)">
        <circle cx="31.975" cy="31.975" r="31.916" style="fill:rgb(27,31,34);"/>
    </g>
    <g transform="matrix(0.799762,0,0,0.791842,6.49632,6.65406)">
        <path d="M50.311,29.881C50.311,28.696 49.36,27.733 48.189,27.733L15.633,27.733C14.462,27.733 13.511,28.696 13.511,29.881L13.511,34.178C13.511,35.363 14.462,36.326 15.633,36.326L48.189,36.326C49.36,36.326 50.311,35.363 50.311,34.178L50.311,29.881Z" style="fill:rgb(27,31,34);"/>
    </g>
    <g transform="matrix(2.26087,0,0,2.26087,4.86957,4.86957)">
        <path d="M12,23.5C18.309,23.5 23.5,18.309 23.5,12C23.5,5.691 18.309,0.5 12,0.5C5.691,0.5 0.5,5.691 0.5,12C0.505,18.307 5.693,23.495 12,23.5ZM5.5,11.5C5.5,10.951 5.951,10.5 6.5,10.5L17.5,10.5C18.049,10.5 18.5,10.951 18.5,11.5L18.5,12.5C18.5,13.049 18.049,13.5 17.5,13.5L6.5,13.5C5.951,13.5 5.5,13.049 5.5,12.5L5.5,11.5Z" style="fill:rgb(255,183,180);fill-rule:nonzero;"/>
    </g>
</svg>
