<?xml version="1.0" encoding="UTF-8" standalone="no"?>
<!DOCTYPE svg PUBLIC "-//W3C//DTD SVG 1.1//EN" "http://www.w3.org/Graphics/SVG/1.1/DTD/svg11.dtd">
<svg width="64" height="64" viewBox="0 0 64 64" version="1.1" xmlns="http://www.w3.org/2000/svg" xmlns:xlink="http://www.w3.org/1999/xlink" xml:space="preserve" xmlns:serif="http://www.serif.com/" style="fill-rule:evenodd;clip-rule:evenodd;stroke-linejoin:round;stroke-miterlimit:2;">
    <g transform="matrix(0.986239,0,0,1,1.14169,0)">
        <path d="M44.207,20.474C44.207,16.958 41.313,14.104 37.748,14.104L24.83,14.104C21.265,14.104 18.37,16.958 18.37,20.474L18.37,44.889C18.37,48.405 21.265,51.259 24.83,51.259L37.748,51.259C41.313,51.259 44.207,48.405 44.207,44.889L44.207,20.474Z" style="fill:white;"/>
    </g>
    <g transform="matrix(4.9208,0,0,4.9208,-54.0991,-54.0991)">
        <path d="M17.5,11C13.934,11 11,13.934 11,17.5C11,21.066 13.934,24 17.5,24C21.066,24 24,21.066 24,17.5C23.995,13.936 21.064,11.005 17.5,11ZM19.89,16.69C20.008,16.841 20.031,17.046 19.95,17.22C19.866,17.391 19.691,17.5 19.5,17.5L18.5,17.5C18.363,17.5 18.25,17.613 18.25,17.75L18.25,20.5C18.25,20.911 17.911,21.25 17.5,21.25C17.089,21.25 16.75,20.911 16.75,20.5L16.75,17.75C16.75,17.613 16.637,17.5 16.5,17.5L15.5,17.5C15.309,17.5 15.134,17.391 15.05,17.22C14.969,17.046 14.992,16.841 15.11,16.69L17.11,14.19C17.207,14.075 17.35,14.009 17.5,14.009C17.65,14.009 17.793,14.075 17.89,14.19L19.89,16.69Z" style="fill:rgb(96,166,90);fill-rule:nonzero;"/>
    </g>
</svg>
