<?xml version="1.0" encoding="UTF-8" standalone="no"?>
<!DOCTYPE svg PUBLIC "-//W3C//DTD SVG 1.1//EN" "http://www.w3.org/Graphics/SVG/1.1/DTD/svg11.dtd">
<svg width="64" height="64" viewBox="0 0 64 64" version="1.1" xmlns="http://www.w3.org/2000/svg" xmlns:xlink="http://www.w3.org/1999/xlink" xml:space="preserve" xmlns:serif="http://www.serif.com/" style="fill-rule:evenodd;clip-rule:evenodd;stroke-linejoin:round;stroke-miterlimit:2;">
    <path d="M47.822,23.97C47.822,19.604 44.277,16.059 39.911,16.059L24.03,16.059C19.663,16.059 16.119,19.604 16.119,23.97L16.119,39.793C16.119,44.159 19.663,47.704 24.03,47.704L39.911,47.704C44.277,47.704 47.822,44.159 47.822,39.793L47.822,23.97Z" style="fill:rgb(56,64,71);"/>
    <g transform="matrix(2.78261,0,0,2.78261,-1.3913,-1.3913)">
        <path d="M12,23.5C18.309,23.5 23.5,18.309 23.5,12C23.5,5.691 18.309,0.5 12,0.5C5.691,0.5 0.5,5.691 0.5,12C0.505,18.307 5.693,23.495 12,23.5ZM7.05,9.17C6.665,8.783 6.665,8.147 7.05,7.76L7.76,7.05C8.147,6.665 8.783,6.665 9.17,7.05L11.82,9.7C11.867,9.749 11.932,9.777 12,9.777C12.068,9.777 12.133,9.749 12.18,9.7L14.83,7.05C15.217,6.665 15.853,6.665 16.24,7.05L16.95,7.76C17.335,8.147 17.335,8.783 16.95,9.17L14.3,11.82C14.251,11.867 14.223,11.932 14.223,12C14.223,12.068 14.251,12.133 14.3,12.18L17,14.83C17.385,15.217 17.385,15.853 17,16.24L16.29,16.95C15.903,17.335 15.267,17.335 14.88,16.95L12.18,14.3C12.133,14.251 12.068,14.223 12,14.223C11.932,14.223 11.867,14.251 11.82,14.3L9.17,17C8.783,17.385 8.147,17.385 7.76,17L7.05,16.29C6.665,15.903 6.665,15.267 7.05,14.88L9.7,12.18C9.749,12.133 9.777,12.068 9.777,12C9.777,11.932 9.749,11.867 9.7,11.82L7.05,9.17Z" style="fill:rgb(204,204,204);fill-rule:nonzero;"/>
    </g>
</svg>
