<?xml version="1.0" encoding="UTF-8" standalone="no"?>
<!DOCTYPE svg PUBLIC "-//W3C//DTD SVG 1.1//EN" "http://www.w3.org/Graphics/SVG/1.1/DTD/svg11.dtd">
<svg width="100%" height="100%" viewBox="0 0 64 64" version="1.1" xmlns="http://www.w3.org/2000/svg" xmlns:xlink="http://www.w3.org/1999/xlink" xml:space="preserve" xmlns:serif="http://www.serif.com/" style="fill-rule:evenodd;clip-rule:evenodd;stroke-linejoin:round;stroke-miterlimit:2;">
    <g transform="matrix(0.848806,0,0,0.90268,3.31035,1.53456)">
        <rect x="-3.9" y="-1.7" width="75.4" height="70.9" style="fill:rgb(56,64,71);"/>
    </g>
    <g transform="matrix(58,0,0,58,12.1554,52.8223)">
        <g transform="matrix(0.014878,0,0,0.014878,-0.213103,-0.916019)">
            <path d="M21.096,5.57C21.096,2.692 18.76,0.356 15.881,0.356L5.452,0.356C2.574,0.356 0.237,2.692 0.237,5.57L0.237,16C0.237,18.878 2.574,21.215 5.452,21.215L15.881,21.215C18.76,21.215 21.096,18.878 21.096,16L21.096,5.57Z" style="fill:rgb(109,184,103);"/>
        </g>
        <g transform="matrix(0.014878,0,0,0.014878,0.183449,-0.916019)">
            <path d="M21.096,5.57C21.096,2.692 18.76,0.356 15.881,0.356L5.452,0.356C2.574,0.356 0.237,2.692 0.237,5.57L0.237,16C0.237,18.878 2.574,21.215 5.452,21.215L15.881,21.215C18.76,21.215 21.096,18.878 21.096,16L21.096,5.57Z" style="fill:rgb(109,184,103);"/>
        </g>
        <g transform="matrix(0.014878,0,0,0.014878,0.580001,-0.916019)">
            <path d="M21.096,5.57C21.096,2.692 18.76,0.356 15.881,0.356L5.452,0.356C2.574,0.356 0.237,2.692 0.237,5.57L0.237,16C0.237,18.878 2.574,21.215 5.452,21.215L15.881,21.215C18.76,21.215 21.096,18.878 21.096,16L21.096,5.57Z" style="fill:rgb(109,184,103);"/>
        </g>
        <g transform="matrix(0.014878,0,0,0.014878,-0.213103,-0.519468)">
            <path d="M21.096,5.57C21.096,2.692 18.76,0.356 15.881,0.356L5.452,0.356C2.574,0.356 0.237,2.692 0.237,5.57L0.237,16C0.237,18.878 2.574,21.215 5.452,21.215L15.881,21.215C18.76,21.215 21.096,18.878 21.096,16L21.096,5.57Z" style="fill:rgb(109,184,103);"/>
        </g>
        <g transform="matrix(0.014878,0,0,0.014878,0.183449,-0.519468)">
            <path d="M21.096,5.57C21.096,2.692 18.76,0.356 15.881,0.356L5.452,0.356C2.574,0.356 0.237,2.692 0.237,5.57L0.237,16C0.237,18.878 2.574,21.215 5.452,21.215L15.881,21.215C18.76,21.215 21.096,18.878 21.096,16L21.096,5.57Z" style="fill:rgb(109,184,103);"/>
        </g>
        <g transform="matrix(0.014878,0,0,0.014878,-0.213103,-0.122916)">
            <path d="M21.096,5.57C21.096,2.692 18.76,0.356 15.881,0.356L5.452,0.356C2.574,0.356 0.237,2.692 0.237,5.57L0.237,16C0.237,18.878 2.574,21.215 5.452,21.215L15.881,21.215C18.76,21.215 21.096,18.878 21.096,16L21.096,5.57Z" style="fill:rgb(222,193,62);"/>
        </g>
        <g transform="matrix(0.014878,0,0,0.014878,0.183449,-0.122916)">
            <path d="M21.096,5.57C21.096,2.692 18.76,0.356 15.881,0.356L5.452,0.356C2.574,0.356 0.237,2.692 0.237,5.57L0.237,16C0.237,18.878 2.574,21.215 5.452,21.215L15.881,21.215C18.76,21.215 21.096,18.878 21.096,16L21.096,5.57Z" style="fill:white;"/>
        </g>
    </g>
</svg>
